# xmcd
#
# Track frame offsets:
#	150
#	29705
#	48631
#	74534
#	106154
#	130211
#	150464
#	179817
#
# Disc length: 2638 seconds
#
# Revision: 11
# Processed by: cddbd v1.5.2PL0 Copyright (c) Steve Scherf et al.
# Submitted via: Jack! The Knife 20 Magnifico
#
DISCID=740a4c08
DTITLE=Solitude Aeturnus - Beyond The Crimson Horizon
DYEAR=1992
DGENRE=Metal
TTITLE0=Seeds Of The Desolate
TTITLE1=Black Castle
TTITLE2=The Final Sin
TTITLE3=It Came Upon One Night
TTITLE4=The Hourglass
TTITLE5=Beneath The Fading Sun
TTITLE6=Plague Of Procreation
TTITLE7=Beyond...
EXTD=Danny Brown and Solitude Aeturnus
EXTT0=Lowe, Rivera, Perez, Steadham, Covington
EXTT1=Lowe, Rivera, Perez, Steadham, Covington
EXTT2=Lowe, Rivera, Perez, Steadham, Covington
EXTT3=Lowe, Rivera, Perez, Steadham, Covington
EXTT4=Lowe, Rivera, Perez, Steadham, Covington
EXTT5=Lowe, Rivera, Perez, Steadham, Covington
EXTT6=Lowe, Rivera, Perez, Steadham, Covington
EXTT7=Lowe, Rivera, Perez, Steadham, Covington
PLAYORDER=
